<svg xmlns="http://www.w3.org/2000/svg" version="1.1" xmlns:xlink="http://www.w3.org/1999/xlink" xmlns:svgjs="http://svgjs.com/svgjs" width="2560" height="1440" preserveAspectRatio="none" viewBox="0 0 2560 1440"><g mask="url(&quot;#SvgjsMask1022&quot;)" fill="none"><rect width="2560" height="1440" x="0" y="0" fill="#0e2a47"></rect><path d="M0,1085.267C196.39,1048.275,338.338,887.122,478.694,744.863C594.18,627.811,642.027,470.512,738.154,337.104C864.836,161.291,1129.891,53.814,1132.756,-162.866C1135.542,-373.617,903.133,-504.835,751.216,-650.933C612.118,-784.703,477.888,-950.06,286.724,-976.491C100.889,-1002.185,-62.073,-868.321,-231.007,-786.736C-372.707,-718.304,-505.854,-645.35,-621.014,-538.112C-747.972,-419.887,-891.253,-302.632,-931.964,-133.996C-974.026,40.238,-894.922,213.584,-843.97,385.428C-784.882,584.713,-770.552,817.35,-610.547,950.03C-446.771,1085.837,-209.081,1124.649,0,1085.267" fill="#0b2239"></path><path d="M2560 2247.906C2724.252 2234.034 2884.93 2241.777 3040.793 2188.129 3234.183 2121.564 3507.473 2095.813 3568.767 1900.689 3632.467 1697.908 3386.369 1530.442 3309.661 1332.215 3254.451 1189.542 3265.185 1029.435 3181.949 901.078 3090.5299999999997 760.102 2969.755 636.533 2815.433 570.076 2650.027 498.846 2453.163 442.803 2288.825 516.463 2126.538 589.203 2078.526 790.597 1985.405 942.111 1908.104 1067.884 1842.295 1191.397 1789.316 1329.192 1721.172 1506.43 1585.051 1680.0529999999999 1630.83 1864.338 1677.404 2051.827 1845.449 2200.288 2024.019 2274.003 2192.775 2343.667 2378.078 2263.2709999999997 2560 2247.906" fill="#113255"></path></g><defs><mask id="SvgjsMask1022"><rect width="2560" height="1440" fill="#ffffff"></rect></mask></defs></svg>